# AST/ASF file generated using VICON BodyLanguage
# -----------------------------------------------
:version 1.10
:name VICON
:units
  mass 1.0
  length 0.45
  angle deg
:documentation
   .ast/.asf automatically generated from VICON data using
   VICON BodyBuilder and BodyLanguage model FoxedUp or BRILLIANT.MOD
:root
   order TX TY TZ RX RY RZ
   axis XYZ
   position 0 0 0  
   orientation 0 0 0 
:bonedata
  begin
     id 1 
     name lhipjoint
     direction 0.734343 -0.627749 0.258209 
     length 2.5437 
     axis 0 0 0  XYZ
  end
  begin
     id 2 
     name lfemur
     direction 0.34202 -0.939693 0  
     length 6.7391  
     axis 0 0 20  XYZ
    dof rx ry rz
    limits (-160.0 20.0)
           (-70.0 70.0)
           (-60.0 70.0)
  end
  begin
     id 3 
     name ltibia
     direction 0.34202 -0.939693 0   
     length 7.21536   
     axis 0 0 20   XYZ
    dof rx
    limits (-10.0 170.0)
  end
  begin
     id 4 
     name lfoot
     direction 0.0489572 -0.134509 0.989702   
     length 1.61313   
     axis -90 7.62852e-016 20   XYZ
    dof rx rz
    limits (-45.0 90.0)
           (-70.0 20.0)
  end
  begin
     id 5 
     name ltoes
     direction 1.53451e-011 -4.21692e-011 1   
     length 0.823104   
     axis -90 7.62852e-016 20   XYZ
    dof rx
    limits (-90.0 20.0)
  end
  begin
     id 6 
     name rhipjoint
     direction -0.746398 -0.615468 0.253157   
     length 2.59446  
     axis 0 0 0  XYZ 
  end
  begin
     id 7 
     name rfemur
     direction -0.34202 -0.939693 0   
     length 6.7075   
     axis 0 0 -20   XYZ
    dof rx ry rz
    limits (-160.0 20.0)
           (-70.0 70.0)
           (-70.0 60.0)
  end
  begin
     id 8 
     name rtibia
     direction -0.34202 -0.939693 0   
     length 7.27262   
     axis 0 0 -20   XYZ
    dof rx
    limits (-10.0 170.0)
 end
 begin
     id 9 
     name rfoot
     direction -0.0455203 -0.125066 0.991104   
     length 1.91095  
     axis -90 -7.62852e-016 -20   XYZ
    dof rx rz
    limits (-45.0 90.0)
           (-20.0 70.0)
  end
  begin
     id 10 
     name rtoes
     direction -1.53601e-011 -4.21913e-011 1   
     length 0.969037   
     axis -90 -7.62852e-016 -20   XYZ
    dof rx
    limits (-90.0 20.0)
  end
  begin
     id 11 
     name lowerback
     direction 0.0181546 0.999122 -0.0377542   
     length 1.99916   
     axis 0 0 0   XYZ
    dof rx ry rz
    limits (-20.0 45.0)
           (-30.0 30.0)
           (-30.0 30.0)
  end
  begin
     id 12 
     name upperback
     direction 0.0203486 0.99589 0.0882534   
     length 1.951   
     axis 0 0 0   XYZ
    dof rx ry rz
    limits (-20.0 45.0)
           (-30.0 30.0)
           (-30.0 30.0)
  end
  begin
     id 13 
     name thorax
     direction 0.0131685 0.994241 0.106355   
     length 1.97461   
     axis 0 0 0   XYZ
    dof rx ry rz
    limits (-20.0 45.0)
           (-30.0 30.0)
           (-30.0 30.0)
  end
  begin
     id 14 
     name lowerneck
     direction -0.0281395 0.999325 0.023617   
     length 1.7959   
     axis 0 0 0   XYZ
    dof rx ry rz
    limits (-20.0 45.0)
           (-30.0 30.0)
           (-30.0 30.0)
  end
  begin
     id 15 
     name upperneck
     direction 0.0288721 0.991984 -0.123019   
     length 1.79917   
     axis 0 0 0   XYZ
    dof rx ry rz
    limits (-20.0 45.0)
           (-30.0 30.0)
           (-30.0 30.0)
  end
  begin
     id 16
     name head
     direction 0.0133797 0.998944 -0.0439492  
     length 1.80902  
     axis 0 0 0   XYZ
    dof rx ry rz
    limits (-20.0 45.0)
           (-30.0 30.0)
           (-30.0 30.0)
  end
  begin
     id 17 
     name lclavicle
     direction 0.919195 0.377107 0.113449  
     length 3.17815  
     axis 0 0 0   XYZ
    dof ry rz
    limits (-20.0 10.0)
           (0.0 20.0)
  end
  begin
     id 18 
     name lhumerus
     direction 1 -4.48959e-011 2.13129e-027   
     length 4.84137   
     axis 180 -30 -90   XYZ
    dof rx ry rz
    limits (-60.0 90.0)
           (-90.0 90.0)
           (-90.0 90.0)
  end
  begin
     id 19
     name lradius
     direction 1 -4.48957e-011 -6.30627e-028   
     length 3.2452   
     axis 180 -30 -90   XYZ
    dof rx
    limits (-10.0 170.0)
  end
  begin
     id 20
     name lwrist
     direction 1 -4.4901e-011 9.13299e-027   
     length 1.6226   
     axis -6.84618e-015 90 90   XYZ
    dof ry
    limits (-180.0 0.0)
 end
  begin
     id 21 
     name lhand
     direction 1 -4.48816e-011 1.82293e-026   
     length 0.521221   
     axis -1.16502e-014 90 90   XYZ
    dof rx rz
    limits (-90.0 90.0)
           (-45.0 45.0)
  end
  begin
     id 22 
     name lfingers
     direction 1 -4.49108e-011 3.65687e-026   
     length 0.420221   
     axis -2.33008e-014 90 90   XYZ
    dof rx
    limits (0.0 90.0)
  end
  begin
     id 23
     name lthumb
     direction 0.707107 -6.34943e-011 0.707107   
     length 0.603356   
     axis -90 45 5.69224e-014   XYZ
    dof rx rz
    limits (-45.0 45.0)
           (-45.0 45.0)
  end
  begin
     id 24 
     name rclavicle
     direction -0.90847 0.38596 0.160368   
     length 3.12973  
     axis 0 0 0   XYZ 
    dof ry rz
    limits (-10.0 20.0)
           (-20.0 0.0)
  end
  begin
     id 25 
     name rhumerus
     direction -1 -4.48974e-011 4.47268e-028  
     length 4.72284   
     axis 180 30 90   XYZ
    dof rx ry rz
    limits (-90.0 60.0)
           (-90.0 90.0)
           (-90.0 90.0)
  end
  begin
     id 26 
     name rradius
     direction -1 -4.48969e-011 3.43203e-027   
     length 3.23459   
     axis 180 30 90   XYZ
    dof rx
    limits (-10.0 170.0)
  end
  begin
     id 27 
     name rwrist
     direction -1 -4.48969e-011 9.12911e-027   
     length 1.6173   
     axis -6.84618e-015 -90 -90   XYZ
    dof ry
    limits (-180.0 0.0)
  end
  begin
     id 28
     name rhand
     direction -1 -4.49194e-011 1.83006e-026   
     length 0.307416   
     axis -1.16502e-014 -90 -90   XYZ
    dof rx rz
    limits (-90.0 90.0)
           (-45.0 45.0)
  end
  begin
     id 29
     name rfingers
     direction -1 -4.48423e-011 3.63103e-026   
     length 0.247847   
     axis -2.33008e-014 -90 -90   XYZ
    dof rx
    limits (0.0 90.0)
  end
  begin
     id 30
     name rthumb
     direction -0.707107 -6.34802e-011 0.707107   
     length 0.35586   
     axis -90 -45 -5.69224e-014   XYZ
    dof rx rz
    limits (-45.0 45.0)
           (-45.0 45.0)
  end
:hierarchy
  begin
    root lhipjoint rhipjoint lowerback
    lhipjoint lfemur
    lfemur ltibia
    ltibia lfoot
    lfoot ltoes
    rhipjoint rfemur
    rfemur rtibia
    rtibia rfoot
    rfoot rtoes
    lowerback upperback
    upperback thorax
    thorax lowerneck lclavicle rclavicle
    lowerneck upperneck
    upperneck head
    lclavicle lhumerus
    lhumerus lradius
    lradius lwrist
    lwrist lhand lthumb
    lhand lfingers
    rclavicle rhumerus
    rhumerus rradius
    rradius rwrist
    rwrist rhand rthumb
    rhand rfingers
  end

#!OML:ASF H:\Terrain\Patient Classification 1\Animal1\Tuesday\Animal1.ASF
:FULLY-SPECIFIED
:DEGREES
807
root 12.3536 16.4392 -13.4202 4.43209 -8.33777 -1.4739
lowerback -1.45329 -0.376866 0.130191
upperback 4.17846 -0.55958 1.00888
thorax 5.1387 -0.297701 0.937424
lowerneck 3.84683 17.7653 8.6851
upperneck 38.1216 20.9747 12.188
head 11.6192 11.8446 4.79514
rclavicle 1.51946e-014 2.31584e-014
rhumerus 81.7816 -35.6836 -54.7
rradius 127.723
rwrist -88.9882
rhand 26.8137 15.5121
rfingers 7.12502
rthumb 50.8209 -5.26876
lclavicle 1.51946e-014 2.31584e-014
lhumerus -35.5823 -27.5817 93.2307
lradius 39.2926
lwrist -23.1709
lhand 0.503201 43.9894
lfingers 7.12502
lthumb 26.0723 72.22
rfemur -12.2398 14.064 18.3687
rtibia 19.8136
rfoot -4.72043 -25.3959
rtoes -6.08739
lfemur -8.56235 -19.875 -7.52801
ltibia 12.8591
lfoot -11.3708 16.3708
ltoes -20.8797
808
root 12.3539 16.4413 -13.4185 4.43673 -8.30941 -1.30851
lowerback -1.44446 -0.375332 -0.00927787
upperback 4.16117 -0.548767 0.948523
thorax 5.11602 -0.296497 0.953825
lowerneck 3.4917 17.7133 8.36946
upperneck 37.994 20.869 12.2959
head 11.5676 11.7739 4.8761
rclavicle -1.10698e-014 -8.74653e-015
rhumerus 81.6613 -35.6626 -54.6051
rradius 129.053
rwrist -89.023
rhand 27.4184 15.2547
rfingers 7.12502
rthumb 51.3717 -5.21684
lclavicle -1.10698e-014 -8.74653e-015
lhumerus -35.6803 -27.6521 93.264
lradius 39.3686
lwrist -23.1645
lhand 0.294356 43.7144
lfingers 7.12502
lthumb 25.8723 71.9744
rfemur -12.2881 14.0547 18.1737
rtibia 19.8748
rfoot -5.00095 -25.2429
rtoes -6.00217
lfemur -8.56757 -19.9639 -7.69552
ltibia 12.8036
lfoot -11.7104 16.3259
ltoes -19.2091
809
root 12.3547 16.4411 -13.4166 4.41454 -8.25483 -1.32318
lowerback -1.41808 -0.39512 -0.0208128
upperback 4.16499 -0.576267 0.984404
thorax 5.10601 -0.311446 0.995959
lowerneck 3.42157 17.6929 8.3273
upperneck 38.0191 20.8409 12.2837
head 11.5864 11.7556 4.88518
rclavicle 1.05107e-014 -8.34896e-015
rhumerus 81.4828 -35.4822 -54.2999
rradius 130.346
rwrist -88.8695
rhand 27.4212 17.1703
rfingers 7.12502
rthumb 51.3743 -3.29977
lclavicle 1.05107e-014 -8.34896e-015
lhumerus -35.7175 -27.7347 93.3651
lradius 39.362
lwrist -23.0914
lhand 0.213764 43.6216
lfingers 7.12502
lthumb 25.7951 71.8928
rfemur -12.2622 14.0603 18.1838
rtibia 19.8957
rfoot -5.1618 -25.1843
rtoes -5.29669
lfemur -8.54208 -20.0148 -7.68593
ltibia 12.7881
lfoot -11.9932 16.2812
ltoes -18.0409
810
root 12.3539 16.4381 -13.4149 4.43033 -8.2441 -1.42761
lowerback -1.42346 -0.415923 0.0756454
upperback 4.1669 -0.609858 1.0238
thorax 5.11115 -0.325147 0.98067
lowerneck 3.53691 17.7269 8.32858
upperneck 38.0501 20.8903 12.3019
head 11.5752 11.7796 4.8845
rclavicle -1.27968e-014 -3.18055e-015
rhumerus 81.2671 -35.1344 -54.0577
rradius 131.742
rwrist -88.4029
rhand 27.0582 20.6644
rfingers 7.12502
rthumb 51.0438 0.00749898
lclavicle -1.27968e-014 -3.18055e-015
lhumerus -35.7278 -27.6642 93.3837
lradius 39.3305
lwrist -23.1465
lhand 0.293274 43.7618
lfingers 7.12502
lthumb 25.8712 72.0219
rfemur -12.2437 14.0338 18.3101
rtibia 19.8624
rfoot -4.91638 -25.2106
rtoes -6.14544
lfemur -8.56919 -19.8854 -7.57025
ltibia 12.8393
lfoot -11.4891 16.2936
ltoes -20.0378
811
root 12.3525 16.4358 -13.4133 4.47594 -8.25963 -1.46071
lowerback -1.45274 -0.42251 0.0974734
upperback 4.14592 -0.620287 1.04104
thorax 5.10605 -0.329755 0.985499
lowerneck 3.49801 17.7489 8.16096
upperneck 38.1267 20.8836 12.452
head 11.5674 11.7745 4.96046
rclavicle -7.1314e-015 4.87022e-015
rhumerus 81.1596 -34.7311 -54.0207
rradius 133.218
rwrist -88.0484
rhand 27.3818 21.9063
rfingers 7.12502
rthumb 51.3384 1.41573
lclavicle -7.1314e-015 4.87022e-015
lhumerus -35.779 -27.5849 93.4001
lradius 39.311
lwrist -23.2452
lhand 0.394944 43.7786
lfingers 7.12502
lthumb 25.9686 72.0245
rfemur -12.2724 14.0323 18.3468
rtibia 19.8151
rfoot -4.74773 -25.3048
rtoes -7.81686
lfemur -8.64444 -19.7332 -7.5152
ltibia 12.9265
lfoot -10.9186 16.2718
ltoes -22.7183
812
root 12.3527 16.4371 -13.4122 4.51082 -8.26289 -1.48299
lowerback -1.44058 -0.438597 0.075278
upperback 4.1224 -0.642705 1.08951
thorax 5.07576 -0.342777 1.04689
lowerneck 3.59463 17.7545 8.24054
upperneck 38.2537 20.8995 12.4141
head 11.6204 11.7865 4.94645
rclavicle 1.15047e-014 -6.75868e-015
rhumerus 81.3213 -34.7638 -54.154
rradius 134.687
rwrist -88.5935
rhand 28.2018 21.0527
rfingers 7.12502
rthumb 52.0832 0.996584
lclavicle 1.15047e-014 -6.75868e-015
lhumerus -35.8143 -27.4607 93.4483
lradius 39.2848
lwrist -23.3431
lhand 0.472267 43.6917
lfingers 7.12502
lthumb 26.0426 71.9267
rfemur -12.2998 14.036 18.3598
rtibia 19.8032
rfoot -4.67293 -25.3433
rtoes -7.61904
lfemur -8.70132 -19.7023 -7.47977
ltibia 12.9896
lfoot -10.8734 16.2188
ltoes -23.3493
813
root 12.3541 16.4401 -13.4108 4.49675 -8.25262 -1.44405
lowerback -1.39531 -0.455699 0.0292862
upperback 4.12263 -0.663533 1.0923
thorax 5.05114 -0.355007 1.07465
lowerneck 3.77086 17.7418 8.48755
upperneck 38.2495 20.9269 12.2414
head 11.6491 11.8071 4.85018
rclavicle 4.00054e-014 -1.07344e-014
rhumerus 81.4902 -35.1058 -54.2098
rradius 136.099
rwrist -89.31
rhand 28.555 20.9446
rfingers 7.12502
rthumb 52.4032 1.08154
lclavicle 4.00054e-014 -1.07344e-014
lhumerus -35.8211 -27.3834 93.456
lradius 39.2801
lwrist -23.4096
lhand 0.646483 43.7786
lfingers 7.12502
lthumb 26.2094 71.9889
rfemur -12.2944 14.0019 18.3158
rtibia 19.846
rfoot -4.6169 -25.2976
rtoes -6.60691
lfemur -8.69412 -19.7189 -7.53962
ltibia 12.9807
lfoot -10.7227 16.2811
ltoes -24.1216
814
root 12.3536 16.441 -13.4098 4.48269 -8.26271 -1.45335
lowerback -1.38766 -0.452257 0.0448286
upperback 4.14604 -0.659167 1.078
thorax 5.07083 -0.352015 1.05142
lowerneck 3.86922 17.6908 8.49772
upperneck 38.0319 20.8744 12.2013
head 11.5489 11.779 4.79489
rclavicle -1.58034e-014 8.05078e-015
rhumerus 81.4646 -35.2552 -54.1273
rradius 137.329
rwrist -89.2409
rhand 28.0046 21.7949
rfingers 7.12502
rthumb 51.9043 1.63265
lclavicle -1.58034e-014 8.05078e-015
lhumerus -35.7943 -27.5247 93.4706
lradius 39.2556
lwrist -23.2924
lhand 0.572768 43.8118
lfingers 7.12502
lthumb 26.1389 72.0326
rfemur -12.3419 14.0512 18.3321
rtibia 19.9606
rfoot -4.5019 -25.4285
rtoes -7.40509
lfemur -8.6033 -19.6526 -7.53892
ltibia 12.8406
lfoot -11.1822 16.1651
ltoes -22.4427
815
root 12.3516 16.4403 -13.4087 4.46609 -8.31055 -1.47264
lowerback -1.36765 -0.446387 0.0229078
upperback 4.15485 -0.651454 1.10028
thorax 5.06905 -0.34963 1.08733
lowerneck 3.86352 17.6423 8.24847
upperneck 37.8448 20.7861 12.3254
head 11.4186 11.7241 4.82858
rclavicle -9.31803e-015 -7.55382e-015
rhumerus 81.4166 -35.2658 -54.041
rradius 138.332
rwrist -88.864
rhand 28.0319 23.0333
rfingers 7.12502
rthumb 51.9292 2.88564
lclavicle -9.31803e-015 -7.55382e-015
lhumerus -35.7879 -27.5855 93.5297
lradius 39.226
lwrist -23.2502
lhand 0.382666 43.7437
lfingers 7.12502
lthumb 25.9568 71.9913
rfemur -12.3989 14.1394 18.3566
rtibia 20.0883
rfoot -4.72309 -25.5258
rtoes -8.05438
lfemur -8.45793 -19.5158 -7.52528
ltibia 12.6464
lfoot -11.7598 15.9521
ltoes -19.9746
816
root 12.3513 16.4408 -13.4048 4.3867 -8.35137 -1.32822
lowerback -1.34338 -0.461333 -0.156723
upperback 4.17044 -0.663875 1.0895
thorax 5.07383 -0.362896 1.17629
lowerneck 3.77806 17.6331 8.04252
upperneck 37.9046 20.7227 12.5055
head 11.4037 11.6923 4.91701
rclavicle 1.42628e-014 -1.19271e-014
rhumerus 81.5156 -35.2716 -54.1086
rradius 139.235
rwrist -88.8702
rhand 30.0445 24.0163
rfingers 7.12502
rthumb 53.7469 5.00861
lclavicle 1.42628e-014 -1.19271e-014
lhumerus -35.8271 -27.4497 93.5556
lradius 39.2306
lwrist -23.3713
lhand 0.470575 43.6794
lfingers 7.12502
lthumb 26.041 71.9146
rfemur -12.3508 14.0877 18.2065
rtibia 20.1732
rfoot -5.48329 -25.3107
rtoes -6.88161
lfemur -8.29404 -19.5426 -7.7257
ltibia 12.5258
lfoot -11.7485 16.0254
ltoes -19.7337
817
root 12.3545 16.4397 -13.4019 4.33491 -8.37789 -1.17837
lowerback -1.32891 -0.463979 -0.295357
upperback 4.16408 -0.659495 1.0382
thorax 5.05981 -0.365068 1.20128
lowerneck 3.61229 17.584 7.95145
upperneck 38.1181 20.5635 12.7515
head 11.4788 11.6379 5.03804
rclavicle -1.12313e-014 -5.86415e-015
rhumerus 81.5524 -35.2392 -54.2132
rradius 140.08
rwrist -89.0717
rhand 30.9373 23.6008
rfingers 7.12502
rthumb 54.5476 5.13989
lclavicle -1.12313e-014 -5.86415e-015
lhumerus -35.9069 -27.4206 93.5613
lradius 39.2459
lwrist -23.3582
lhand 0.491665 43.5705
lfingers 7.12502
lthumb 26.0612 71.8028
rfemur -12.3722 13.9544 18.0422
rtibia 20.2877
rfoot -5.42616 -25.229
rtoes -7.0135
lfemur -8.17096 -19.7376 -7.91888
ltibia 12.3994
lfoot -11.8636 16.1526
ltoes -18.7197
818
root 12.356 16.4414 -13.4002 4.39778 -8.43739 -1.25936
lowerback -1.3807 -0.411421 -0.213265
upperback 4.13162 -0.591862 1.02848
thorax 5.05267 -0.327755 1.14879
lowerneck 3.20182 17.4582 7.73898
upperneck 38.4183 20.2226 13.1939
head 11.5956 11.511 5.26182
rclavicle -1.38901e-014 6.55989e-015
rhumerus 81.4754 -35.2693 -54.2304
rradius 140.758
rwrist -89.0707
rhand 30.1419 22.4579
rfingers 7.12502
rthumb 53.8345 3.50858
lclavicle -1.38901e-014 6.55989e-015
lhumerus -35.9777 -27.5831 93.5884
lradius 39.2707
lwrist -23.2899
lhand 0.546462 43.5564
lfingers 7.12502
lthumb 26.1137 71.7809
rfemur -12.5374 13.989 18.1091
rtibia 20.4203
rfoot -5.20666 -25.2801
rtoes -6.94734
lfemur -8.13297 -19.7297 -7.82028
ltibia 12.2481
lfoot -11.642 16.1266
ltoes -18.4451
819
root 12.3538 16.448 -13.3977 4.45218 -8.47364 -1.4439
lowerback -1.37058 -0.380527 -0.0902343
upperback 4.09231 -0.558048 1.09718
thorax 5.00449 -0.30731 1.15295
lowerneck 3.66974 17.5198 8.33739
upperneck 38.4078 20.429 12.7802
head 11.6494 11.6255 5.0325
rclavicle -2.18415e-014 -1.11319e-014
rhumerus 81.3381 -35.1989 -54.116
rradius 141.237
rwrist -88.8217
rhand 31.0123 22.9921
rfingers 7.12502
rthumb 54.6147 4.57836
lclavicle -2.18415e-014 -1.11319e-014
lhumerus -36.0626 -27.6749 93.6922
lradius 39.2784
lwrist -23.281
lhand 0.763776 43.7863
lfingers 7.12502
lthumb 26.3217 71.9799
rfemur -12.581 14.1421 18.3058
rtibia 20.4282
rfoot -5.76737 -25.3015
rtoes -5.35794
lfemur -8.16945 -19.5762 -7.60976
ltibia 12.2867
lfoot -11.3834 16.0428
ltoes -18.9998
820
root 12.353 16.4481 -13.3942 4.41038 -8.46651 -1.4234
lowerback -1.25938 -0.429392 -0.21721
upperback 4.07183 -0.621113 1.17482
thorax 4.92349 -0.345129 1.30158
lowerneck 4.01332 17.5745 8.52398
upperneck 38.4287 20.5695 12.6094
head 11.6451 11.6907 4.93301
rclavicle 1.1281e-014 -2.5842e-014
rhumerus 81.2817 -34.875 -54.0142
rradius 141.523
rwrist -88.7167
rhand 31.8061 23.9106
rfingers 7.12502
rthumb 55.323 6.00811
lclavicle 1.1281e-014 -2.5842e-014
lhumerus -36.0929 -27.5363 93.8033
lradius 39.2228
lwrist -23.2953
lhand 0.709034 43.9579
lfingers 7.12502
lthumb 26.2693 72.1593
rfemur -12.4321 14.1732 18.3045
rtibia 20.3102
rfoot -5.84919 -25.4057
rtoes -5.69686
lfemur -8.21899 -19.6581 -7.64393
ltibia 12.5093
lfoot -11.9616 16.0391
ltoes -17.7659
